<svg height="512pt" viewBox="-41 0 512 512.001" width="512pt" fill="#FFF" xmlns="http://www.w3.org/2000/svg"><path d="m404.453125 0c-13.644531 0-24.742187 11.097656-24.742187 24.742188 0 4.066406.992187 7.902343 2.738281 11.292968l-58.894531 58.894532h-190.335938c-4.183594 0-7.574219 3.390624-7.574219 7.574218 0 4.179688 3.390625 7.570313 7.574219 7.570313h175.1875l-32.316406 32.316406h-224.15625l-27.835938-32.316406h73.777344c4.183594 0 7.574219-3.390625 7.574219-7.570313 0-4.183594-3.390625-7.574218-7.574219-7.574218h-90.300781c-2.960938 0-5.648438 1.722656-6.882813 4.417968-1.234375 2.691406-.7890622 5.855469 1.144532 8.097656l173.882812 201.859376v36.132812c0 4.179688 3.390625 7.574219 7.574219 7.574219 4.179687 0 7.574219-3.394531 7.574219-7.574219v-31.371094h19.183593v131.484375c0 10.535157 5.839844 20.03125 15.246094 24.785157l52.457031 26.515624h-154.585937l52.457031-26.515624c9.398438-4.753907 15.242188-14.25 15.242188-24.785157v-64.894531c0-4.183594-3.390626-7.574219-7.574219-7.574219-4.183594 0-7.574219 3.390625-7.574219 7.574219v64.894531c0 4.789063-2.65625 9.105469-6.929688 11.265625l-80.8125 40.851563c-3.128906 1.582031-4.761718 5.105469-3.949218 8.515625s3.859375 5.816406 7.367187 5.816406h218.128907c3.507812 0 6.554687-2.40625 7.367187-5.816406.816406-3.410156-.820313-6.933594-3.949219-8.515625l-80.8125-40.851563c-4.273437-2.160156-6.929687-6.476562-6.929687-11.265625v-136.246093l62.582031-72.648438c2.730469-3.171875 2.375-7.953125-.796875-10.683594-3.167969-2.726562-7.949219-2.371094-10.679687.796875l-62.148438 72.148438h-27.394531l-121.78125-141.378907h195.960937l-19.777344 19.777344c-9.003906-6.855468-19.703124-10.6875-30.257812-10.6875-10.433594 0-19.972656 3.792969-26.863281 10.683594-14.394531 14.390625-13.964844 38.757812.007812 57.117188l-19.496093 19.496093c-2.683594 2.683594-2.945313 7.09375-.578126 10.066407 2.78125 3.488281 8.132813 3.800781 11.289063.644531l19.492187-19.492188c9.003907 6.855469 19.703126 10.691407 30.261719 10.691407 10.429688 0 19.96875-3.796876 26.859375-10.6875 14.394532-14.390626 13.964844-38.753907-.003906-57.117188l30.492188-30.492188h53.570312l-36.191406 42.015626c-2.484375 2.882812-2.40625 7.308593.1875 10.09375 3.035156 3.261718 8.382812 3.167968 11.289062-.207032l87.859375-101.996094c1.933594-2.246093 2.378907-5.410156 1.144531-8.101562-1.234374-2.691406-3.921874-4.417969-6.882812-4.417969h-48.367188l48.183594-48.179687c3.386719 1.746094 7.222656 2.738281 11.292969 2.738281 13.640625 0 24.738281-11.101563 24.738281-24.742187 0-13.644532-11.097656-24.742188-24.738281-24.742188zm-163.28125 234.4375c-5.167969 5.164062-11.636719 6.25-16.152344 6.25-8.894531 0-18.085937-4.085938-25.226562-11.207031-.011719-.011719-.023438-.027344-.039063-.042969-.011718-.011719-.027344-.027344-.042968-.039062-12.757813-12.796876-14.988282-31.34375-4.957032-41.375 5.164063-5.164063 11.632813-6.25 16.148438-6.25 8.910156 0 18.121094 4.101562 25.265625 11.25 12.800781 12.796874 15.042969 31.375 5.003906 41.414062zm135.652344-124.363281-27.839844 32.316406h-51.46875l32.316406-32.316406zm27.628906-75.738281c-5.292969 0-9.597656-4.304688-9.597656-9.59375 0-5.292969 4.304687-9.59375 9.597656-9.59375 5.289063 0 9.59375 4.300781 9.59375 9.59375 0 5.289062-4.304687 9.59375-9.59375 9.59375zm0 0"/></svg>
